<svg xmlns="http://www.w3.org/2000/svg" viewBox="0 0 32 32" width="32" height="32">
  <!-- Background -->
  <rect width="32" height="32" rx="6" fill="#16161e"/>

  <!-- Subtle grid -->
  <line x1="8"  y1="0"  x2="8"  y2="32" stroke="rgba(120,120,200,0.08)" stroke-width="0.5"/>
  <line x1="16" y1="0"  x2="16" y2="32" stroke="rgba(120,120,200,0.08)" stroke-width="0.5"/>
  <line x1="24" y1="0"  x2="24" y2="32" stroke="rgba(120,120,200,0.08)" stroke-width="0.5"/>
  <line x1="0"  y1="8"  x2="32" y2="8"  stroke="rgba(120,120,200,0.08)" stroke-width="0.5"/>
  <line x1="0"  y1="16" x2="32" y2="16" stroke="rgba(120,120,200,0.08)" stroke-width="0.5"/>
  <line x1="0"  y1="24" x2="32" y2="24" stroke="rgba(120,120,200,0.08)" stroke-width="0.5"/>

  <!-- Corner brackets -->
  <!-- top-left -->
  <path d="M4,9 L4,4 L9,4" fill="none" stroke="#4a4a9a" stroke-width="1.5" stroke-linecap="round" stroke-linejoin="round"/>
  <!-- top-right -->
  <path d="M23,4 L28,4 L28,9" fill="none" stroke="#4a4a9a" stroke-width="1.5" stroke-linecap="round" stroke-linejoin="round"/>
  <!-- bottom-left -->
  <path d="M4,23 L4,28 L9,28" fill="none" stroke="#4a4a9a" stroke-width="1.5" stroke-linecap="round" stroke-linejoin="round"/>
  <!-- bottom-right -->
  <path d="M23,28 L28,28 L28,23" fill="none" stroke="#4a4a9a" stroke-width="1.5" stroke-linecap="round" stroke-linejoin="round"/>

  <!-- Crosshair arms -->
  <line x1="16" y1="10" x2="16" y2="13.5" stroke="#7878d0" stroke-width="1.5" stroke-linecap="round"/>
  <line x1="16" y1="18.5" x2="16" y2="22" stroke="#7878d0" stroke-width="1.5" stroke-linecap="round"/>
  <line x1="10" y1="16" x2="13.5" y2="16" stroke="#7878d0" stroke-width="1.5" stroke-linecap="round"/>
  <line x1="18.5" y1="16" x2="22" y2="16" stroke="#7878d0" stroke-width="1.5" stroke-linecap="round"/>

  <!-- Center dot with glow -->
  <circle cx="16" cy="16" r="2.2" fill="#7878d0"/>
  <circle cx="16" cy="16" r="4"   fill="rgba(120,120,208,0.15)"/>
</svg>
